<?xml version="1.0" encoding="utf-8"?>
<!-- Generator: Adobe Illustrator 20.1.0, SVG Export Plug-In . SVG Version: 6.00 Build 0)  -->
<svg version="1.1"
	 id="Layer_1" xmlns:cc="http://creativecommons.org/ns#" xmlns:dc="http://purl.org/dc/elements/1.1/" xmlns:inkscape="http://www.inkscape.org/namespaces/inkscape" xmlns:rdf="http://www.w3.org/1999/02/22-rdf-syntax-ns#" xmlns:sodipodi="http://sodipodi.sourceforge.net/DTD/sodipodi-0.dtd" xmlns:svg="http://www.w3.org/2000/svg"
	 xmlns="http://www.w3.org/2000/svg" xmlns:xlink="http://www.w3.org/1999/xlink" x="0px" y="0px" viewBox="0 0 46 46.5"
	 style="enable-background:new 0 0 46 46.5;" xml:space="preserve">
<g transform="translate(0,-952.36218)">
	<path d="M1.7,955.9c-0.6,0-1,0.5-1,1c0,0.6,0.5,1,1,1H7l5.3,25.2c-0.1,0.6,0.5,1.1,1.1,1.1h25.3c0.5,0,1-0.5,1-1c0-0.5-0.5-1-1-1
		H14.2l-0.9-4.1h27.4c0.5,0,0.9-0.3,1-0.8l3.5-15.2c0.1-0.6-0.4-1.2-1-1.2H9.7l-0.9-4.3c-0.1-0.4-0.5-0.8-1-0.8L1.7,955.9z
		 M10.1,963H43l-3.1,13.2h-27L10.1,963z M18.5,986.2c-2.5,0-4.6,2.1-4.6,4.6c0,2.5,2.1,4.6,4.6,4.6c2.5,0,4.6-2.1,4.6-4.6
		S21,986.2,18.5,986.2z M33.6,986.2c-2.5,0-4.6,2.1-4.6,4.6c0,2.5,2.1,4.6,4.6,4.6c2.5,0,4.6-2.1,4.6-4.6S36.2,986.2,33.6,986.2z
		 M18.5,988.3c1.4,0,2.5,1.1,2.5,2.5c0,1.4-1.1,2.5-2.5,2.5c-1.4,0-2.5-1.1-2.5-2.5S17,988.3,18.5,988.3z M33.6,988.3
		c1.4,0,2.5,1.1,2.5,2.5c0,1.4-1.1,2.5-2.5,2.5c-1.4,0-2.5-1.1-2.5-2.5S32.2,988.3,33.6,988.3z"/>
</g>
</svg>
