<?xml version="1.0" encoding="utf-8"?>
<!-- Generator: Adobe Illustrator 19.1.0, SVG Export Plug-In . SVG Version: 6.00 Build 0)  -->
<svg version="1.1" id="Layer_1" xmlns="http://www.w3.org/2000/svg" xmlns:xlink="http://www.w3.org/1999/xlink" x="0px" y="0px"
	 viewBox="-775 421 48 48.2" style="enable-background:new -775 421 48 48.2;" xml:space="preserve">
<style type="text/css">
	.st0{fill:#FF913F;}
</style>
<g>
	<path class="st0" d="M-757.3,435.3c2.2,0.8,4.4-0.4,5.2-2.7c0.8-2.4-0.2-4.6-2.3-5.4c-2.2-0.8-4.4,0.4-5.2,2.7
		S-759.5,434.6-757.3,435.3z"/>
	<path class="st0" d="M-756.5,442l3.6,7.5l-0.7,0.3c-1.5,0.7-2.6,1.9-3.1,3.5c-0.5,1.5-0.4,3.2,0.3,4.6l2,4.1
		c0.2,0.4,0.5,0.6,0.9,0.8c0.4,0.1,0.8,0.1,1.2-0.1c0.8-0.4,1.1-1.3,0.7-2l-2-4.1c-0.4-0.7-0.4-1.6-0.1-2.3c0.3-0.8,0.8-1.4,1.6-1.7
		l5.1-2.5l0,0c0.5-0.2,1-0.2,1.5-0.1c0.5,0.2,0.9,0.5,1.1,1l0.5,1v0l0,0c0.7,1.5,1.9,2.6,3.5,3.1l0,0c1.5,0.5,3.2,0.4,4.6-0.3l2.1-1
		c0.8-0.4,1.1-1.3,0.7-2s-1.3-1.1-2-0.7l-2.1,1c-0.7,0.4-1.6,0.4-2.3,0.1l0,0c-0.8-0.3-1.4-0.8-1.7-1.6l-2-4.1c0,0,0,0,0,0l-4.3-8.9
		l0.7-0.3c0.7-0.4,1.6-0.4,2.3-0.1l0,0c0.8,0.3,1.4,0.8,1.7,1.6l2,4.1c0.4,0.8,1.3,1.1,2,0.7c0.8-0.4,1.1-1.3,0.7-2l-2-4.1
		c-0.7-1.5-1.9-2.6-3.5-3.1l0,0c-1.5-0.5-3.2-0.4-4.6,0.3l-10.3,4.9c-0.7,0.4-1.6,0.4-2.3,0.1h0c-0.8-0.3-1.4-0.8-1.7-1.6l-2-4.1
		c-0.4-0.8-1.3-1.1-2-0.7c-0.8,0.4-1.1,1.3-0.7,2l2,4.1c0.7,1.5,1.9,2.6,3.5,3.1c0,0,0,0,0,0c1.5,0.5,3.2,0.4,4.6-0.3L-756.5,442z"
		/>
	<path class="st0" d="M-736.2,445.4c-0.4,0.4-0.5,1.1-0.3,1.7c0.2,0.4,0.5,0.6,0.8,0.7c0.2,0.1,0.4,0.1,0.6,0.1
		c0.7-0.1,1.3,0,1.9,0.2l0.1,0l1-2.7l-0.4-0.9l-2.8-0.9C-735.3,444.3-735.7,444.9-736.2,445.4z"/>
	<path class="st0" d="M-736,432.7c-1.4-1.8-3.3-3.2-5.4-4l-1,2.8c1.6,0.6,3.1,1.6,4.1,3L-736,432.7z"/>
	<path class="st0" d="M-734.9,441.6l2.8-1.1c-0.1-0.5-0.3-1-0.5-1.5l-1.8-3.7l-2.6,1.3l1.8,3.7C-735.1,440.7-735,441.1-734.9,441.6z
		"/>
	<path class="st0" d="M-748.3,430.8c0.1,0.1,0.2,0.1,0.4,0.2c0.2,0.1,0.5,0.1,0.7,0.1c0.8-0.1,1.6-0.2,2.4-0.1l0.3-2.9
		c-0.6-0.1-1.3,0.3-1.8,0c-0.5-0.4-0.4-1.2-0.7-1.7l-2.6,1.4c0.4,0.7,0.6,1.4,0.7,2.2C-748.8,430.2-748.6,430.6-748.3,430.8z"/>
	<path class="st0" d="M-756.5,423.9l-0.3-2.9c-2.1,0.2-4,1-5.6,2.4l1.9,2.2C-759.3,424.7-757.9,424.1-756.5,423.9z"/>
	<path class="st0" d="M-753.5,424.3c1.1,0.4,2,1,2.7,1.8l2.1-2c-1.1-1.1-2.4-2-3.9-2.5c-0.5-0.2-1-0.3-1.5-0.4l-0.5,2.9
		C-754.1,424.1-753.8,424.2-753.5,424.3z"/>
	<path class="st0" d="M-764.6,430.3c0.4,0.1,0.8,0.1,1.1-0.1c0.3-0.2,0.6-0.5,0.7-0.9c0-0.1,0.1-0.2,0.1-0.4
		c0.2-0.6,0.5-1.2,0.9-1.8l-2.5-1.6c-0.3,0.5-0.3,1.3-0.9,1.6c-0.6,0.3-1.4-0.1-2.1,0.1l0.5,2.9C-765.9,430-765.2,430.1-764.6,430.3
		z"/>
	<path class="st0" d="M-770.3,433.2c0.3-1,1-1.8,1.9-2.4l-1.6-2.5c-1.4,0.9-2.5,2.3-3.1,3.9c-0.2,0.5-0.3,1-0.4,1.6l2.9,0.4
		C-770.4,433.8-770.4,433.5-770.3,433.2z"/>
	<path class="st0" d="M-770.3,436l-2.8,0.8c0.1,0.4,0.3,0.8,0.5,1.2l1.9,3.9l2.6-1.3l-1.9-3.9C-770.2,436.5-770.3,436.2-770.3,436z"
		/>
	<path class="st0" d="M-769.4,444.2c1.2,1.6,2.9,2.9,4.8,3.7l1.2-2.7c-1.4-0.6-2.7-1.6-3.6-2.8L-769.4,444.2z"/>
	<path class="st0" d="M-759,451c0.4-0.7,0.9-1.4,1.4-1.9c0.4-0.4,0.5-1.1,0.3-1.6l-0.3-0.6c-0.3-0.5-0.8-0.9-1.4-0.8
		c-0.8,0.1-1.6,0-2.4-0.1l-0.5,2.9l0.4,0.8L-759,451z"/>
	<path class="st0" d="M-754.6,465.8c-0.3-0.1-0.6-0.2-0.8-0.4l-1.5,2.5c0.4,0.2,0.9,0.4,1.3,0.6c1.7,0.6,3.5,0.6,5.2-0.1l-1-2.7
		C-752.5,466.1-753.5,466.1-754.6,465.8z"/>
	<path class="st0" d="M-759.8,452.9l-2.8-0.8c-0.5,2-0.6,4.1-0.1,6.1l2.9-0.7C-760.2,456-760.2,454.4-759.8,452.9z"/>
	<path class="st0" d="M-759.1,459.6l-2.6,1.3l1.8,3.8c0.2,0.4,0.5,0.8,0.7,1.2l2.4-1.7c-0.2-0.2-0.3-0.5-0.4-0.7L-759.1,459.6z"/>
	<path class="st0" d="M-748.5,461c0.1,0.6,0,1.3-0.2,1.9c-0.2,0.7-0.6,1.3-1.2,1.8l2,2.1c0.9-0.8,1.5-1.8,1.9-3
		c0.4-1,0.5-2.1,0.4-3.1L-748.5,461z"/>
	<path class="st0" d="M-748.1,454l-1.5,0.7c-0.7,0.4-1,1.2-0.7,2l1.2,2.5l4.4-2.9c-0.6-0.5-1.1-1.1-1.6-1.8
		C-746.6,453.9-747.4,453.7-748.1,454z"/>
	<path class="st0" d="M-730.1,453.6l2.9,0.7c0.4-1.7,0.2-3.4-0.5-5c-0.3-0.7-0.8-1.3-1.3-1.9l-2.1,2c0.3,0.3,0.6,0.7,0.8,1.2
		C-729.9,451.5-729.8,452.5-730.1,453.6z"/>
	<path class="st0" d="M-732.6,456.7l-2.1,1c-0.3,0.1-0.5,0.2-0.8,0.3l1,2.8c0.3-0.1,0.7-0.3,1-0.4l2.1-1c1-0.5,1.9-1.2,2.6-2.1
		l-2.3-1.8C-731.4,455.9-731.9,456.4-732.6,456.7z"/>
	<path class="st0" d="M-741.6,458.1c-0.4-0.1-0.7-0.3-1.1-0.4l-1.3,2.6c0.4,0.2,0.9,0.4,1.4,0.6c1.7,0.6,3.5,0.8,5.2,0.6l-0.3-2.9
		C-739,458.7-740.3,458.5-741.6,458.1z"/>
</g>
</svg>
