<?xml version="1.0" encoding="utf-8"?>
<!-- Generator: Adobe Illustrator 19.1.0, SVG Export Plug-In . SVG Version: 6.00 Build 0)  -->
<svg version="1.1" id="Layer_1" xmlns="http://www.w3.org/2000/svg" xmlns:xlink="http://www.w3.org/1999/xlink" x="0px" y="0px"
	 viewBox="-775 426.8 48 48.2" style="enable-background:new -775 426.8 48 48.2;" xml:space="preserve">
<style type="text/css">
	.st0{fill:#FF913F;}
</style>
<g>
	<polygon class="st0" points="-731.3,427.4 -734.1,427.7 -730.4,474.4 -727.5,474.1 	"/>
	<polygon class="st0" points="-774.5,474.1 -771.6,474.4 -767.9,427.7 -770.7,427.4 	"/>
	<rect x="-752.4" y="427.5" class="st0" width="2.9" height="46.9"/>
	<polygon class="st0" points="-741.6,468.1 -741.4,473.3 -738.5,473.2 -738.7,467.9 	"/>
	<polygon class="st0" points="-739.3,454.8 -742.2,454.9 -741.9,460.2 -739.1,460 	"/>
	<polygon class="st0" points="-739.9,441.6 -742.8,441.8 -742.5,447 -739.6,446.9 	"/>
	<polygon class="st0" points="-740.5,428.5 -743.3,428.6 -743.1,433.9 -740.2,433.7 	"/>
	<polygon class="st0" points="-761.8,433.7 -758.9,433.9 -758.7,428.6 -761.5,428.5 	"/>
	<polygon class="st0" points="-762.4,446.9 -759.5,447 -759.2,441.8 -762.1,441.6 	"/>
	<polygon class="st0" points="-762.9,460 -760.1,460.2 -759.8,454.9 -762.7,454.8 	"/>
	<polygon class="st0" points="-763.5,473.2 -760.6,473.3 -760.4,468.1 -763.3,467.9 	"/>
</g>
</svg>
