<?xml version="1.0" encoding="utf-8"?>
<!-- Generator: Adobe Illustrator 20.1.0, SVG Export Plug-In . SVG Version: 6.00 Build 0)  -->
<svg version="1.1" id="Layer_1" xmlns="http://www.w3.org/2000/svg" xmlns:xlink="http://www.w3.org/1999/xlink" x="0px" y="0px"
	 viewBox="0 0 53.3 50.3" style="enable-background:new 0 0 53.3 50.3;" xml:space="preserve">
<style type="text/css">
	.st0{fill:#FF913F;}
</style>
<g>
	<g>
		<path class="st0" d="M20,36.4c-4.8,0-9.3-1.9-12.6-5.2s-5.2-7.9-5.2-12.6S4.1,9.3,7.4,5.9c3.4-3.4,7.9-5.2,12.6-5.2
			s9.3,1.9,12.6,5.2c7,7,7,18.3,0,25.3C29.3,34.5,24.8,36.4,20,36.4z M20,3.6c-4,0-7.7,1.5-10.5,4.4c-2.8,2.8-4.4,6.5-4.4,10.5
			S6.6,26.2,9.5,29c2.8,2.8,6.5,4.4,10.5,4.4s7.7-1.5,10.5-4.4c5.8-5.8,5.8-15.2,0-21C27.7,5.2,24,3.6,20,3.6z"/>
	</g>
	<g>
		<path class="st0" d="M49.6,49.6c-0.4,0-0.8-0.1-1.1-0.4l-18-18c-0.6-0.6-0.6-1.5,0-2.1s1.5-0.6,2.1,0l18,18c0.6,0.6,0.6,1.5,0,2.1
			C50.4,49.4,50,49.6,49.6,49.6z"/>
	</g>
</g>
</svg>
