<?xml version="1.0" encoding="utf-8"?>
<!-- Generator: Adobe Illustrator 20.1.0, SVG Export Plug-In . SVG Version: 6.00 Build 0)  -->
<svg version="1.1" id="Layer_1" xmlns="http://www.w3.org/2000/svg" xmlns:xlink="http://www.w3.org/1999/xlink" x="0px" y="0px"
	 viewBox="0 0 34.7 32.7" style="enable-background:new 0 0 34.7 32.7;" xml:space="preserve">
<style type="text/css">
	.st0{fill:#A3A3A3;}
</style>
<g>
	<g>
		<path class="st0" d="M13.1,23.6c-3.1,0-6-1.2-8.1-3.3s-3.3-5.1-3.3-8.1s1.2-6,3.3-8.2c2.2-2.2,5.1-3.3,8.1-3.3s6,1.2,8.1,3.3
			c4.5,4.5,4.5,11.8,0,16.3C19,22.4,16.2,23.6,13.1,23.6z M13.1,2.5c-2.6,0-5,1-6.8,2.8c-1.8,1.8-2.8,4.2-2.8,6.8s1,5,2.8,6.8
			c1.8,1.8,4.2,2.8,6.8,2.8s5-1,6.8-2.8c3.7-3.7,3.7-9.8,0-13.5C18,3.5,15.6,2.5,13.1,2.5z"/>
	</g>
	<g>
		<path class="st0" d="M32.1,32.1c-0.3,0-0.5-0.1-0.7-0.3L19.8,20.3c-0.4-0.4-0.4-1,0-1.4c0.4-0.4,1-0.4,1.4,0l11.6,11.6
			c0.4,0.4,0.4,1,0,1.4C32.6,32,32.4,32.1,32.1,32.1z"/>
	</g>
</g>
</svg>
